<?xml version="1.0" encoding="utf-8"?>
<!-- Generator: Adobe Illustrator 23.0.2, SVG Export Plug-In . SVG Version: 6.00 Build 0)  -->
<svg version="1.1" id="Layer_1" xmlns="http://www.w3.org/2000/svg" xmlns:xlink="http://www.w3.org/1999/xlink" x="0px" y="0px"
	 viewBox="0 0 100 100" style="enable-background:new 0 0 100 100;" xml:space="preserve">
<style type="text/css">
	.st0{fill:#FFFFFF;}
	.st1{fill:none;stroke:#FFFFFF;stroke-width:5.6693;stroke-linecap:round;stroke-linejoin:round;stroke-miterlimit:10;}
</style>
<g>
	<g>
		<path class="st0" d="M50,20.7c16.2,0,29.3,13.1,29.3,29.3S66.2,79.3,50,79.3S20.7,66.2,20.7,50S33.8,20.7,50,20.7 M50,15
			c-19.3,0-35,15.7-35,35s15.7,35,35,35s35-15.7,35-35S69.3,15,50,15L50,15z"/>
	</g>
	<circle class="st0" cx="50.4" cy="65.2" r="3.8"/>
	<path class="st1" d="M41.8,42.8c0-4.8,4-8.7,8.8-8.5c4.5,0.1,8.2,3.8,8.3,8.3c0.1,3.6-2.1,6.8-5.2,8.1c-2,0.9-3.4,2.7-3.4,4.9l0,0"
		/>
</g>
</svg>
