<svg id="Layer_1" data-name="Layer 1" xmlns="http://www.w3.org/2000/svg" viewBox="0 0 127.9 65"><defs><style>.cls-1{fill:#efb00f;}.cls-2{fill:#fe3268;}.cls-3{fill:#5255ca;}</style></defs><title>Artboard 1 copy 57</title><polyline class="cls-1" points="50.25 16.28 44.65 16.28 44.65 48.72 50.25 48.72 50.25 16.28"/><path class="cls-2" d="M63.7,28.31a10.21,10.21,0,1,0,10.2,10.2,10.21,10.21,0,0,0-10.2-10.2m0,14.8a4.59,4.59,0,1,1,4.6-4.6,4.58,4.58,0,0,1-4.6,4.6"/><path class="cls-1" d="M89.47,28.3h0V39.75a3.36,3.36,0,1,1-6.72,0V28.3H77.14V39.75a9,9,0,0,0,15.13,6.51,8.9,8.9,0,0,1-2.8-6.51V28.3"/><path class="cls-2" d="M107.39,28.3h-5.6V39.75a3.36,3.36,0,1,1-6.72,0v0a8.94,8.94,0,0,1-2.8,6.51,9,9,0,0,0,15.12-6.51V28.3"/><path class="cls-3" d="M95.07,28.3h-5.6V39.75a8.94,8.94,0,0,0,2.8,6.51,8.94,8.94,0,0,0,2.8-6.51V28.3"/><path class="cls-2" d="M20.51,25.8h0V48.72h5.61V34.47a9.54,9.54,0,0,1-5.61-8.67"/><path class="cls-1" d="M26.12,25.8h0v8.67a9.39,9.39,0,0,0,3.9.83H40.39V29.7H30a3.91,3.91,0,0,1-3.9-3.9"/><path class="cls-3" d="M40.39,16.29H30a9.51,9.51,0,0,0-3.9,18.18V25.8A3.91,3.91,0,0,1,30,21.89H40.39v-5.6"/></svg>