<svg xmlns="http://www.w3.org/2000/svg" width="20.75" height="33.852" viewBox="0 0 20.75 33.852">
  <g id="Group_1" data-name="Group 1" transform="translate(-361.858 57.369)">
    <path id="Path_11" data-name="Path 11" d="M361.86-47.86h0v23.926h5.853V-38.808a9.942,9.942,0,0,1-5.853-9.052" transform="translate(0 0.417)" fill="#fe3268"/>
    <path id="Path_12" data-name="Path 12" d="M367.467-47.86h0v9.052a9.879,9.879,0,0,0,4.074.875h10.821v-5.853H371.54a4.079,4.079,0,0,1-4.074-4.074" transform="translate(0.246 0.417)" fill="#efb00f"/>
    <path id="Path_13" data-name="Path 13" d="M382.608-57.369H371.786a9.927,9.927,0,0,0-9.705,7.843,9.925,9.925,0,0,0,5.631,11.134v-9.052a4.078,4.078,0,0,1,4.074-4.073h10.822v-5.853" transform="translate(0 0)" fill="#5255ca"/>
  </g>
</svg>
