<?xml version="1.0" encoding="utf-8"?>
<!-- Generator: Adobe Illustrator 23.0.2, SVG Export Plug-In . SVG Version: 6.00 Build 0)  -->
<svg version="1.1" id="Layer_1" xmlns="http://www.w3.org/2000/svg" xmlns:xlink="http://www.w3.org/1999/xlink" x="0px" y="0px"
	 viewBox="0 0 22.1 22" style="enable-background:new 0 0 22.1 22;" xml:space="preserve">
<style type="text/css">
	.st0{fill:#FE3268;}
</style>
<path id="path" class="st0" d="M21.3,17.8l-8.9-8.9c0.3-0.8,0.5-1.6,0.5-2.5C12.8,2.9,10,0,6.4,0c-1.1,0-2.1,0.2-3,0.8l4.6,4.6
	L5.4,7.9L0.8,3.4C0.2,4.3,0,5.4,0,6.4c0,3.5,2.9,6.4,6.4,6.4c0.8,0,1.7-0.1,2.5-0.5l8.9,8.9c1,0.9,2.5,0.9,3.5,0l0,0
	c1-0.9,1.1-2.3,0.2-3.3C21.4,17.9,21.3,17.8,21.3,17.8z"/>
</svg>
